<?xml version="1.0" encoding="utf-8"?>
<!-- Generator: Adobe Illustrator 25.1.0, SVG Export Plug-In . SVG Version: 6.00 Build 0)  -->
<svg version="1.1" id="Ebene_1" xmlns="http://www.w3.org/2000/svg" xmlns:xlink="http://www.w3.org/1999/xlink" x="0px" y="0px"
	 viewBox="0 0 753 283" style="enable-background:new 0 0 753 283;" xml:space="preserve">
<style type="text/css">
	.st0{fill:#3939B7;}
</style>
<path class="st0" d="M5,260h252c2.8,0,5,2.2,5,5v13c0,2.8-2.2,5-5,5H5c-2.8,0-5-2.2-5-5v-13C0,262.2,2.2,260,5,260z"/>
<path class="st0" d="M249.1,241.6L207.5,140l-8.2,6.8c-0.5,0.4-0.9,1-1.1,1.6l-5.3,16.9c-0.6,1.8-2.4,2.8-4.2,2.2
	c-0.6-0.2-1.2-0.6-1.6-1.1l-11.4-13.6c-0.4-0.5-1-0.9-1.6-1.1l-16.9-5.3c-1.8-0.6-2.8-2.5-2.2-4.2c0.2-0.6,0.6-1.2,1-1.6l13.6-11.4
	c0.5-0.4,0.9-1,1.1-1.6l5.3-16.9c0.6-1.8,2.5-2.8,4.2-2.2c0.6,0.2,1.2,0.6,1.6,1l11.4,13.6c0.4,0.5,1,0.9,1.6,1.1l7.1,2.2l-1.8-4.4
	c-0.4-1.1-0.5-2.2-0.2-3.3L233.3,6.7c0.8-2.6-0.7-5.4-3.4-6.2c-1.5-0.4-3.1-0.2-4.4,0.8L93.4,97.9c-0.6,0.4-1,1-1.4,1.6L12.7,241.1
	c-1.4,2.4-0.5,5.5,1.9,6.8c0.7,0.4,1.6,0.6,2.4,0.6h70.5l-0.6-0.6c-0.7-0.7-1.5-1.1-2.5-1.4l-25.6-5.7c-2.7-0.6-4.4-3.3-3.8-6
	c0.2-0.9,0.7-1.8,1.3-2.5L75.1,214c0.7-0.7,1.1-1.5,1.3-2.5l5.7-25.6c0.6-2.7,3.3-4.4,6-3.8c0.9,0.2,1.8,0.7,2.5,1.3l18.5,18.6
	c0.7,0.7,1.5,1.1,2.5,1.4l25.6,5.7c2.7,0.6,4.4,3.3,3.8,6c-0.2,0.9-0.7,1.8-1.3,2.5L120.9,236c-0.7,0.7-1.1,1.5-1.3,2.5l-2.2,10
	h127.1c2.8,0,5-2.3,5-5C249.5,242.8,249.3,242.2,249.1,241.6z M176.4,49l7.9-1.6c0.3-0.1,0.5-0.2,0.8-0.4l5.8-5.6
	c0.6-0.6,1.6-0.6,2.2,0c0.2,0.2,0.4,0.5,0.4,0.8l1.6,7.9c0.1,0.3,0.2,0.6,0.4,0.8l5.6,5.8c0.6,0.6,0.6,1.6,0,2.2
	c-0.2,0.2-0.5,0.3-0.8,0.4l-7.9,1.6c-0.3,0.1-0.6,0.2-0.8,0.4l-5.8,5.6c-0.6,0.6-1.6,0.6-2.2-0.1c-0.2-0.2-0.3-0.5-0.4-0.8l-1.6-7.9
	c-0.1-0.3-0.2-0.6-0.4-0.8l-5.6-5.8c-0.6-0.6-0.6-1.6,0-2.2C175.9,49.2,176.2,49.1,176.4,49z"/>
<path class="st0" d="M363.5,49.3c-0.9,2.3-1.8,5.1-2.1,6c-0.4,1.6-1.1,3.2-1.6,5c-1.1,3.7-1.4,5-2.5,8.5c-2.7,8-3.9,14.7-6.2,24.2
	c-1.6,7.3-3.4,15-4.6,22.3c-0.5,2.7-0.9,5.5-1.2,8.1c-0.4,2.5-0.4,5.1-0.9,8.1l-21.8,1.8c-0.2-0.9-0.4-2.1-0.5-3
	c-0.4-1.8-0.5-3.2-0.7-4.6c-0.5-3.4-1.1-6.7-2-10.3c-1.2-5.3-1.2-6.5-3-12c-0.4-1.1-0.5-2.3-0.9-3.4c-1.4,2.6-2.5,5.2-3.4,8
	c-1.1,3.4-1.1,3-2.6,7.6c-2,6-3.2,12.2-5,18.4c-3.7,0.5-8,1.4-11.7,1.6c-3.4,0.4-6.7,0.9-10.4,1.2c-0.4-5.5-0.9-11.1-1.6-16.6
	c-0.4-2.8-0.7-5.7-1.1-8.3c-0.9-7.8-1.6-14-3-23.2c-0.7-4.4-1.4-11.3-3-20.7c-1.1-5.3-1.9-10.8-3.2-15.7c3.4-1.4,6.9-2.5,10.5-3.4
	c2.8-0.7,6.4-1.2,9.4-1.9c0.7,3.2,0.7,5.7,1.2,8.1c0.7,3.6,1.1,7.2,1.4,10.8c0.5,5.8,1.4,12,2.3,17.9c0.5,3,0.9,5.8,1.2,8.7
	c0.2,2.1,0.4,4.6,0.7,7.4c1.4-5.8,3.7-12.9,5.1-19.1c1.8-6.6,2.7-17.5,4.4-23.9c4.2-0.9,13.1-1.2,18.4-1.8c0.4,2.8,0.9,5.8,1.4,8.7
	c0.9,5,1.2,11.3,2.1,16.3c0.9,3.9,2.1,11.3,3.2,15.6c0.5-3.2,1.6-7.8,2.3-11.3c0.9-4.1,1.6-6.7,2.3-11c1.8-10.2,4.1-20.4,6.9-30.4
	l5.8,1.8c2.6,0.5,4.1,1.2,5.5,1.6C357.7,47.2,360.6,48.2,363.5,49.3z"/>
<path class="st0" d="M391.1,102c0.2-11-0.3-21.6-0.3-32.5v-5.2c3.2,0.2,5.5,0.3,5.5,0.3C397,62.4,398,46,398,46
	c-0.5-0.1-9.4-1-14.8-1.2c-5.4-0.3-16.5,0.6-16.5,0.6l0.1,18.5c0,0,3.9-0.1,6.6-0.1v41.5c0,4.5-0.2,9-0.5,13.5
	c-3.7,0.3-7,0.6-7.2,0.7c0,0,1,16.4,1.7,18.6c0,0,19.4-1,21.7-0.8c2.5,0,7.8,0.2,7.8,0.2l0.2-18.5c0,0-2.5-0.2-5.6-0.4
	C391.2,113.1,391,107.6,391.1,102z"/>
<path class="st0" d="M456.8,112.3c0.5,3.5,1.4,11.5,1.8,18.2c-6.9,2.5-19.3,3.4-26.9,3.9c-7.8,0.7-15.4,1.6-23.3,2.8
	c-3.2-5.6-6-11.4-8.3-17.3c0.7-2.1,1.6-4.1,2.6-6c8.3-15.6,18.4-30.4,29-46.3c-3.6,0-7.1,0.4-10.6,1.1c-3.5,0.7-5.1,1.1-8.8,2.1
	c-1.4,0.5-3.9,1.4-5.5,2.1c-2-6.9-3.9-13.8-4.6-17.5c3-1.4,6.1-2.5,9.4-3.2c13.1-3.4,26.7-5.1,40.5-6.5c2.9,6.3,5,12.9,6.5,19.6
	c-1.1,0.9-2.1,2-3.2,3c-6.3,6.8-12.2,14.1-17.5,21.7c-5,7.1-12.7,18.4-15.4,26.2c5.8-0.4,11.7-0.5,17.9-1.2
	C444.5,114.6,452.8,112.8,456.8,112.3z"/>
<path class="st0" d="M470.1,73.5c-1.4-3.4-3.5-11.3-5.8-17.5c3.2-1.6,6.7-3.2,9.7-4.4c5.3-2.1,10.9-3.5,16.6-4.1
	c1.8-0.3,3.6-0.5,5.5-0.5c3.4,0,6.8,0.5,10.1,1.6c4.4,1.4,7.3,4.1,9.7,8c3,4.8,5.4,9.9,7.1,15.3c1,3.3,1.5,6.8,1.4,10.3
	c0,2.8-0.2,5.6-0.5,8.3c-0.8,7.1-2.6,14-5.3,20.5c-1.8,4.2-4,8.2-6.6,12c-2.3,3.3-4.9,6.4-7.8,9.2c-3,2.9-7,4.8-11.1,5.3
	c-3,0.4-5.7-0.5-8.5-1.1c-9.7-2.6-18-15-18-25.5c0.1-9.4,0.8-18.7,2.1-28l37-4.1c-0.5-2.3-1.2-5.3-1.6-6.2c-1.8-3.5-4.4-6.9-8.3-7.6
	C492.7,64.8,487.3,65,470.1,73.5z M503.7,97.5L485,99.1c0,0-1.2,5.7-0.9,9c0.5,3.8,3.5,6.8,7.3,7.3c3.2,0.7,7.4-4.4,9.2-7.8
	C502,104.4,503.1,101,503.7,97.5L503.7,97.5z"/>
<path class="st0" d="M561.5,125.9c2.5,5.1,10.5,14.1,13.1,19.1c-4.2,4-8.8,7.5-13.6,10.6c-3.4-2.5-10.1-10.8-12.2-13.6
	c-9.4-12.2-12.2-26.3-15.2-40c-2.1-9.3-3-18.9-2.8-28.5c0-5,0.2-9.7,0.3-14.9c0.9-14.8,5.7-27.6,13.3-40.5
	c2.1-3.9,11.3-15.2,17-19.1c3.4,2.5,9,6.7,13.3,12c-1.8,1.9-8,8-9.5,9.6c-3.8,4.9-6.8,10.5-8.9,16.4c-3,8.7-5,11.3-5.8,21.4
	c-0.5,7.6-1.2,14.1-1.2,21.8c-0.2,9,2.5,18.2,4.8,26.9C555.8,113.6,558.3,119.9,561.5,125.9z"/>
<path class="st0" d="M612.5,76c-3.9,3.1-7.6,6.6-11,10.3c0.2,3.5,0.2,7.3,0.2,11c-0.2,12.2,0.7,24.4,0.7,36.4
	c-6.9,1.6-15.6,2.6-20,3.2c0-2.6,0.2-5.5,0.3-8c0.3-9.2,1.1-18.6,1.1-27.9v-36c0-4.8,0.2-9.4,0.2-14.2c4.1-0.7,10.6-1.9,17.3-2.7
	v4.8c-0.2,2.7-0.2,5.5-0.2,8.1c2.7-2.3,5.5-4.6,8.1-6.7c3.9-3,8.3-7.3,12.9-8.8c4.1,5.4,7,11.7,8.3,18.4
	C624.3,67.6,618.1,71.3,612.5,76z"/>
<path class="st0" d="M662.5,80.1c-0.2-7.6-0.9-14.2-1.4-21.8c-0.9-10.1-2.8-12.7-5.8-21.4c-2-5.9-5.1-11.4-9-16.3
	c-1.4-1.6-7.6-7.6-9.5-9.6c4-4.5,8.5-8.5,13.4-12c5.7,3.9,14.8,15.2,17,19.1c7.8,12.9,12.2,25.7,13.1,40.5c0.2,5.1,0.3,9.9,0.3,14.9
	c0.1,9.5-0.8,19.1-2.7,28.4c-3,13.6-6,27.8-15.2,40c-2.3,2.8-8.7,11.1-12.2,13.6c-4.9-3.1-9.5-6.6-13.8-10.6
	c2.8-4.9,10.6-14,13.4-19.1c3.1-6,5.5-12.4,7.3-18.9C659.7,98.3,662.5,89.1,662.5,80.1z"/>
<path class="st0" d="M734.3,137.9c0,0-1.4-7.1-2.7-16.4c-5.5,3.7-11.1,6.9-17,10.3c-3.5,1.9-7.4,2.9-11.3,3c-3.4,0-6.4-0.7-8.7-3
	c-5.3-5.1-5.5-13.4-5.5-20.2c0.1-8.2,0.8-16.3,1.8-24.4c0.9-7.6,2.8-16.8,6.7-23.5c4.1-6.9,8.8-11.3,17-12.7
	c3.8-0.6,7.7-0.3,11.3,0.9c1.1,0.3,2.2,0.8,3.2,1.2c0.5-8.5,1.2-16.8,1.9-25.3c0-1.9,0.4-7.8,0.7-10.3c3.7-0.5,13.4-1.9,19.5-1.1
	c-1.8,14.1-2.7,27.2-3.2,41.2c-0.2,9-1.1,18-0.9,26.9c0.3,12,1.6,33.6,5.8,45.6C749.5,132.8,740.7,135.6,734.3,137.9z M721.9,107
	c2.8-1.8,5.3-3.4,7.3-4.8c-0.5-8.7-0.4-17.7-0.5-26.3v-2.5c-3.4-2-7.1-4.2-9.5-3.5c-3.7,1.1-5.5,4.3-6.7,7.3c-2,5-2.7,11.5-3.7,16.5
	c-1,4.8-1.3,9.8-0.9,14.7c0.2,4.4,0.9,5.7,5.3,3.9C716.2,110.7,719.1,109,721.9,107z"/>
<path class="st0" d="M303.8,185.5c0.2,5.7,0,10.6-0.2,15.7v6.4c0,5.1,0,9.9,0.2,15c6.2-1.4,14.9-3.2,22.8-4.4c0,0,2.3,11.5,2.5,18.2
	c0,0-14.1,2.1-25.1,4.4v2.7c0,11.7,0.9,23.2,0.7,34.8c-6.5,2.3-13.3,3-20.2,3.4c-0.2-2.7,0.2-5.7,0.2-8.3c0.4-8.7,1.1-17.5,1.1-26.5
	v-45.4c0-3.7,0-7.6-0.2-11.5c-2.8,0.7-5.5,1.6-8.3,2.1c-1.4-5.8-2.4-11.7-3-17.7c12.5-5.1,30.8-7.8,36.4-8.7c7.6-1.2,15-3,22.5-4.2
	c1.4-0.2,2.6-0.4,4.1-0.5c0.2,1.8,0.4,4.6,0.4,7.8c0,3.7-0.2,7.4-0.7,11C325.8,181.6,314.8,182.7,303.8,185.5z"/>
<path class="st0" d="M400.2,235.9c-0.3,5.6-1.1,11.2-2.5,16.6c-1.2,4.6-3,9-5.5,13.1c-2.4,4.4-5.7,8.2-9.5,11.3
	c-3.6,2.9-8.1,4.5-12.7,4.4c-2-0.1-3.9-0.3-5.8-0.7c-16.6-3-28.1-20.3-26.5-36.6c1.1-11.1,3-22.5,8.1-32.5
	c4.3-8.1,12.9-18,22.5-19.3c8-1.1,14.9,3.2,20,8.7c3.5,4.2,6.3,8.9,8.1,14.1C398.6,222.3,400.6,226.9,400.2,235.9z M381.1,234.9
	c0-1.9-0.2-3.9-0.2-6c-0.4-4.8-6.4-18.6-13.3-14.5c-5.3,3.4-8,12-9.4,17.7c-0.9,3.3-1.4,6.7-1.4,10.1c0,3,0.5,6,1.6,8.8
	c1.4,4.1,6.7,12.7,12,10.6s7.6-10.6,9-15.4C380.4,242.5,380.9,238.7,381.1,234.9z"/>
<path class="st0" d="M436.6,221.2c-3.9,3.1-7.6,6.6-11,10.3c0.2,3.5,0.2,7.3,0.2,11c-0.2,12.2,0.7,24.4,0.7,36.4
	c-6.9,1.6-15.6,2.6-20,3.2c0-2.6,0.2-5.5,0.4-8c0.4-9.2,1.1-18.6,1.1-27.9v-36.1c0-4.8,0.2-9.4,0.2-14.1c4.1-0.7,10.6-1.9,17.3-2.6
	v4.8c-0.2,2.6-0.2,5.5-0.2,8.1c2.6-2.3,5.5-4.6,8.1-6.7c3.9-3,8.3-7.3,12.9-8.8c4.2,5.4,7,11.7,8.4,18.4
	C448.5,212.8,442.3,216.5,436.6,221.2z"/>
<path class="st0" d="M533.7,284.5c-4.4-17.5-3.5-36.6-3.5-65.3c-0.2-5.1-6.5,1.6-8.3,3.4c-6.5,6.5-7.3,10.4-7.8,16.1
	c-0.4,14.5-0.4,26.5,1.8,38.6c-6.7,2.3-15.2,3.2-19.3,3.7c-0.3-1.2-0.4-2.3-0.5-3.5c-1.2-17.7-1.8-46.2-1.8-56.6
	c-1.6-6.5-9.7,5.3-11.5,7.3c-1,1.5-2,3.1-2.8,4.8v7.8c-0.2,12.9,0.7,25.5,0.7,38.2c-6.9,1.4-15.6,2.6-20,3.2c0-2.8,0.4-5.7,0.5-8.3
	c0.2-9.5,0.9-19.3,0.9-29.2v-37.7c0-4.8,0.2-9.6,0.2-14.5c4.1-0.9,10.6-1.9,17.3-2.8c-0.2,8.5-0.2,12.2-0.2,15.7
	c2.1-2.1,4.4-4.1,6.7-6c4.8-4.1,10.4-8.8,17-8.8c8.9,0,10.8,8.8,10.8,17.7c2.2-3,4.6-5.7,7.3-8.3c4.6-4.6,11.8-10.6,18.6-9.5
	c2.8,0.4,6.9,2.6,8.3,5.5c2.1,4.9,1.2,12.2,1.2,17c0,6.2-0.3,12.4-0.7,18.7c0,2.8-0.2,6-0.2,9c0,14.7,0.2,25.8,3.7,37.3
	C547.9,281.4,541.5,282.8,533.7,284.5z"/>
<path class="st0" d="M620.4,257.5c0,9-7.6,18.4-16.1,22.1c-3.9,2-8.8,2.7-13.3,3c-5,0.4-14.2-0.2-18-1.9c-5.2-2.4-9.5-6.2-12.5-11
	c-1.1-1.8-1.6-4.8-1.6-8.1c0-3.8,0.7-7.6,2.1-11.1c3.5,0,12.7,0.4,18,1.6c-1.1,3.9-2,6.5,1.4,9.7c1.2,1.4,4.8,2.5,8.5,2.5
	c3.9,0,8.3-1.1,10.6-3.4c3-3-7.3-8.3-12.6-11.5c-6.1-3.6-12-7.6-17.7-12c-4.6-3.5-7.3-9.1-7.3-14.9c0-2.2,0.3-4.4,1.1-6.5
	c4.4-12,17.3-26.4,33.8-26.4c5.5,0,11.7,1.8,14.3,7.8c3.2,6.7,2,18.2,1.6,26.5c-3.1,0.8-6.3,1.2-9.5,1.1c-3.5,0-6.7-0.4-8.7-0.4
	c0-5,0.9-10.1-0.2-15.2c-3.4,0-11.5,5.5-12.4,10.1c-0.7,4.1,8.3,10.1,14.3,14c3.4,1.9,6.7,4.1,9.9,6.2
	C613.1,244.9,620.4,247.9,620.4,257.5z"/>
</svg>
