<svg id="Ebene_1" data-name="Ebene 1" xmlns="http://www.w3.org/2000/svg" viewBox="0 0 753 283"><defs><style>.cls-1{fill:#e74c3c;}</style></defs><rect class="cls-1" y="260" width="262" height="23" rx="5"/><path class="cls-1" d="M249.1,241.6,207.48,140l-8.16,6.82a3.39,3.39,0,0,0-1.06,1.58l-5.33,16.92a3.37,3.37,0,0,1-5.81,1.15l-11.37-13.61a3.41,3.41,0,0,0-1.58-1.06l-16.92-5.33a3.38,3.38,0,0,1-1.15-5.81l13.61-11.37a3.29,3.29,0,0,0,1.06-1.58l5.33-16.92a3.38,3.38,0,0,1,5.81-1.15l11.37,13.62a3.39,3.39,0,0,0,1.58,1.05l7.11,2.24-1.8-4.4a5,5,0,0,1-.17-3.32L233.28,6.71a5,5,0,0,0-7.75-5.46L93.38,97.86A4.89,4.89,0,0,0,92,99.45l-79.3,141.6A5,5,0,0,0,17,248.5H87.54l-.55-.56a5.11,5.11,0,0,0-2.46-1.35l-25.62-5.67a5,5,0,0,1-2.45-8.42L75.06,214a5.11,5.11,0,0,0,1.35-2.46l5.67-25.62a5,5,0,0,1,8.42-2.45L109,202.06a5.11,5.11,0,0,0,2.46,1.35l25.62,5.67a5,5,0,0,1,2.45,8.42L120.94,236a5.11,5.11,0,0,0-1.35,2.46l-2.22,10H244.48A5,5,0,0,0,249.1,241.6ZM176.45,49l7.91-1.58a1.56,1.56,0,0,0,.76-.4l5.81-5.6a1.53,1.53,0,0,1,2.57.81l1.58,7.9a1.59,1.59,0,0,0,.4.77l5.6,5.8a1.54,1.54,0,0,1-.8,2.58l-7.91,1.58a1.63,1.63,0,0,0-.77.4l-5.8,5.6a1.54,1.54,0,0,1-2.57-.81l-1.59-7.91a1.44,1.44,0,0,0-.4-.76l-5.59-5.81A1.53,1.53,0,0,1,176.45,49Z"/><path class="cls-1" d="M363.48,49.34c-.89,2.3-1.77,5.13-2.13,6-.35,1.59-1.06,3.18-1.59,4.95-1.06,3.72-1.41,5-2.47,8.49-2.66,8-3.89,14.68-6.19,24.23-1.59,7.25-3.36,15-4.6,22.28-.53,2.66-.89,5.49-1.24,8.14-.35,2.47-.35,5.13-.88,8.13l-21.76,1.77c-.17-.88-.35-2.12-.53-3-.35-1.76-.53-3.18-.7-4.59-.53-3.36-1.06-6.72-1.95-10.26-1.24-5.31-1.24-6.54-3-12-.36-1.06-.54-2.3-.89-3.36a47.48,47.48,0,0,0-3.36,8c-1.06,3.36-1.06,3-2.65,7.61-2,6-3.19,12.2-5,18.39-3.72.53-8,1.41-11.68,1.59-3.36.35-6.72.88-10.43,1.24-.35-5.48-.88-11.14-1.59-16.63-.36-2.83-.71-5.65-1.06-8.31-.89-7.78-1.59-14-3-23.16-.71-4.43-1.41-11.32-3-20.7-1.06-5.3-1.94-10.78-3.18-15.74A73.26,73.26,0,0,1,281.06,49c2.84-.7,6.37-1.23,9.38-1.94.71,3.18.71,5.66,1.24,8.13A100.62,100.62,0,0,1,293.09,66c.53,5.84,1.42,12,2.3,17.86.53,3,.88,5.84,1.24,8.67.18,2.12.35,4.6.71,7.43,1.41-5.84,3.71-12.91,5.12-19.1,1.77-6.55,2.66-17.51,4.43-23.88,4.24-.88,13.08-1.24,18.39-1.77.35,2.83.88,5.84,1.41,8.67.89,5,1.24,11.32,2.12,16.27.89,3.89,2.13,11.32,3.19,15.56.53-3.18,1.59-7.78,2.3-11.32.88-4.06,1.59-6.72,2.3-11A310.93,310.93,0,0,1,343.49,43l5.84,1.77c2.65.53,4.07,1.24,5.48,1.59A89.34,89.34,0,0,1,363.48,49.34Z"/><path class="cls-1" d="M365.69,119.42c.44-.09,9.37-.91,14.78-1.15s16.53.64,16.53.64l-.17,18.48s-5.27-.15-7.77-.15c-2.33-.23-21.68.81-21.68.81C366.68,135.84,365.69,119.42,365.69,119.42Z"/><path class="cls-1" d="M391.06,102c.18-11-.35-21.58-.35-32.54V63c0-1.6.17-3,.17-4.25-6.89.71-13.44,1.59-17.51,2.3v44.21c0,8.14-.7,16.45-1.06,24.58,0,2.3-.35,4.78-.35,7.08,4.24-.53,13.09-1.42,19.81-2.83C391.77,123.44,390.88,112.83,391.06,102Z"/><path class="cls-1" d="M396.24,64.58s-19.35-1.08-21.67-.85c-2.51,0-7.78.14-7.78.14l-.13-18.48s11.12-.87,16.53-.61S397.53,45.87,398,46C398,46,397,62.38,396.24,64.58Z"/><path class="cls-1" d="M456.84,112.3c.53,3.53,1.42,11.49,1.77,18.21-6.89,2.48-19.27,3.36-26.88,3.89-7.78.71-15.38,1.59-23.34,2.83a132.71,132.71,0,0,1-8.31-17.33,34.89,34.89,0,0,1,2.65-6c8.31-15.56,18.39-30.42,29-46.34a56,56,0,0,0-10.61,1.06c-3.54.71-5.13,1.07-8.84,2.13-1.42.53-3.89,1.41-5.48,2.12-1.95-6.9-3.9-13.8-4.6-17.51a42.06,42.06,0,0,1,9.37-3.18c13.09-3.36,26.7-5.13,40.5-6.55a99.33,99.33,0,0,1,6.54,19.63c-1.06.89-2.12,2-3.18,3A209.21,209.21,0,0,0,437.92,90c-4.95,7.08-12.73,18.4-15.38,26.18,5.83-.36,11.67-.53,17.86-1.24C444.46,114.6,452.78,112.83,456.84,112.3Z"/><path class="cls-1" d="M470.1,73.49c-1.41-3.37-3.53-11.32-5.83-17.51,3.18-1.59,6.72-3.19,9.72-4.42a65.19,65.19,0,0,1,16.63-4.07A28.26,28.26,0,0,1,496.1,47a31.67,31.67,0,0,1,10.08,1.59c4.42,1.41,7.25,4.07,9.73,8A68,68,0,0,1,523,71.89a33.52,33.52,0,0,1,1.42,10.26,81.29,81.29,0,0,1-.53,8.31A76.55,76.55,0,0,1,518.56,111,80,80,0,0,1,512,123a56.71,56.71,0,0,1-7.78,9.2,19.36,19.36,0,0,1-11.15,5.3c-3,.36-5.66-.53-8.49-1.06-9.72-2.65-18-15-18-25.46A231.34,231.34,0,0,1,468.69,83l37-4.07c-.53-2.3-1.24-5.31-1.59-6.19-1.77-3.54-4.42-6.9-8.31-7.61C492.74,64.82,487.26,65,470.1,73.49Zm33.61,24.05L485,99.13s-1.24,5.66-.89,9a8.44,8.44,0,0,0,7.26,7.25c3.18.71,7.42-4.42,9.19-7.78A42.45,42.45,0,0,0,503.71,97.54Z"/><path class="cls-1" d="M561.53,125.91C564,131,572,140.06,574.62,145A93.07,93.07,0,0,1,561,155.62c-3.36-2.47-10.08-10.78-12.2-13.61-9.37-12.21-12.2-26.35-15.21-40a121.49,121.49,0,0,1-2.83-28.47c0-5,.18-9.73.35-14.86.89-14.85,5.66-27.59,13.27-40.5,2.12-3.89,11.32-15.21,17-19.1,3.36,2.48,9,6.72,13.26,12-1.77,1.94-8,8-9.55,9.55A56.3,56.3,0,0,0,556.23,37c-3,8.66-5,11.32-5.84,21.4-.53,7.6-1.24,14.14-1.24,21.75-.17,9,2.48,18.22,4.78,26.88A96.33,96.33,0,0,0,561.53,125.91Z"/><path class="cls-1" d="M612.46,76a101.42,101.42,0,0,0-11,10.26c.17,3.54.17,7.25.17,11-.17,12.21.71,24.41.71,36.44-6.9,1.59-15.56,2.65-20,3.18,0-2.65.17-5.48.35-8,.35-9.2,1.06-18.57,1.06-27.94V64.9c0-4.77.18-9.37.18-14.15,4.07-.71,10.61-1.94,17.33-2.65v4.78c-.18,2.65-.18,5.48-.18,8.13,2.66-2.3,5.49-4.6,8.14-6.72,3.89-3,8.31-7.25,12.91-8.84a44.52,44.52,0,0,1,8.31,18.39C624.31,67.55,618.12,71.27,612.46,76Z"/><path class="cls-1" d="M662.51,80.11c-.18-7.61-.89-14.15-1.42-21.75-.88-10.08-2.83-12.74-5.83-21.4a52.87,52.87,0,0,0-9-16.27c-1.42-1.59-7.61-7.61-9.55-9.55a76.68,76.68,0,0,1,13.44-12c5.66,3.89,14.85,15.21,17,19.1,7.79,12.91,12.21,25.65,13.09,40.5.18,5.13.35,9.9.35,14.86A131.54,131.54,0,0,1,677.89,102c-3,13.62-6,27.76-15.21,40-2.3,2.83-8.66,11.14-12.2,13.61A92.83,92.83,0,0,1,636.69,145c2.83-4.95,10.61-14,13.44-19.1A94.94,94.94,0,0,0,657.38,107C659.68,98.33,662.51,89.13,662.51,80.11Z"/><path class="cls-1" d="M734.31,137.94s-1.42-7.07-2.66-16.45c-5.48,3.72-11.14,6.9-17,10.26a25,25,0,0,1-11.31,3c-3.36,0-6.37-.71-8.67-3-5.3-5.13-5.48-13.44-5.48-20.16A218.84,218.84,0,0,1,691,87.18c.88-7.6,2.83-16.8,6.72-23.52,4.07-6.89,8.84-11.32,17-12.73a25,25,0,0,1,11.32.88,24.67,24.67,0,0,1,3.19,1.24c.53-8.49,1.24-16.8,1.94-25.29,0-1.94.36-7.78.71-10.26,3.71-.53,13.44-1.94,19.45-1.06-1.77,14.15-2.65,27.24-3.18,41.21-.18,9-1.06,18-.88,26.88.35,12,1.59,33.6,5.83,45.63C749.51,132.81,740.67,135.64,734.31,137.94ZM721.93,107c2.83-1.77,5.3-3.36,7.25-4.77-.53-8.67-.36-17.69-.53-26.35V73.39c-3.36-2-7.08-4.24-9.55-3.54-3.72,1.06-5.49,4.25-6.72,7.25-2,5-2.66,11.5-3.72,16.45a49.21,49.21,0,0,0-.88,14.68c.18,4.42.88,5.66,5.3,3.89A55.13,55.13,0,0,0,721.93,107Z"/><path class="cls-1" d="M303.84,185.51c.18,5.66,0,10.61-.18,15.74v6.37c0,5.13,0,9.9.18,15,6.19-1.42,14.86-3.19,22.81-4.42,0,0,2.3,11.49,2.48,18.21,0,0-14.15,2.13-25.11,4.42v2.66c0,11.67.88,23.16.71,34.84-6.55,2.3-13.27,3-20.17,3.36-.17-2.66.18-5.66.18-8.32.36-8.66,1.06-17.5,1.06-26.52V201.43c0-3.72,0-7.61-.17-11.5-2.83.71-5.49,1.59-8.32,2.12a140.7,140.7,0,0,1-3-17.68c12.55-5.13,30.77-7.78,36.43-8.67,7.6-1.24,15-3,22.46-4.24,1.41-.18,2.65-.36,4.07-.53.17,1.77.35,4.6.35,7.78a81.26,81.26,0,0,1-.71,11C325.77,181.62,314.81,182.68,303.84,185.51Z"/><path class="cls-1" d="M400.22,235.91a82.62,82.62,0,0,1-2.47,16.63,50,50,0,0,1-5.49,13.08,38.73,38.73,0,0,1-9.55,11.32A19.55,19.55,0,0,1,370,281.36a35.4,35.4,0,0,1-5.84-.7c-16.62-3-28.12-20.34-26.52-36.61,1.06-11.14,3-22.46,8.13-32.54,4.25-8.14,12.91-18,22.46-19.28,8-1.06,14.86,3.18,20,8.67A44.78,44.78,0,0,1,396.33,215C398.63,222.29,400.57,226.89,400.22,235.91Zm-19.1-1.06c0-1.94-.18-3.89-.18-6-.35-4.78-6.36-18.57-13.26-14.5-5.3,3.36-8,12-9.37,17.68a39.36,39.36,0,0,0-1.42,10.08,25.92,25.92,0,0,0,1.59,8.84c1.42,4.07,6.73,12.74,12,10.62s7.6-10.62,9-15.39A62.84,62.84,0,0,0,381.12,234.85Z"/><path class="cls-1" d="M436.65,221.23a101.42,101.42,0,0,0-11,10.26c.17,3.54.17,7.25.17,11-.17,12.2.71,24.4.71,36.43-6.9,1.59-15.56,2.65-20,3.18,0-2.65.17-5.48.35-8,.35-9.19,1.06-18.57,1.06-27.94V210.09c0-4.77.18-9.37.18-14.15,4.07-.7,10.61-1.94,17.33-2.65v4.78c-.18,2.65-.18,5.48-.18,8.13,2.65-2.3,5.48-4.6,8.14-6.72,3.89-3,8.31-7.25,12.91-8.84A44.65,44.65,0,0,1,454.69,209C448.5,212.75,442.31,216.46,436.65,221.23Z"/><path class="cls-1" d="M533.74,284.55c-4.42-17.51-3.54-36.61-3.54-65.26-.17-5.13-6.54,1.59-8.31,3.36-6.54,6.54-7.25,10.43-7.78,16.09-.36,14.5-.36,26.53,1.77,38.55-6.72,2.3-15.21,3.19-19.28,3.72a28.19,28.19,0,0,1-.53-3.54c-1.24-17.68-1.77-46.16-1.77-56.59-1.59-6.54-9.72,5.31-11.49,7.25a41.75,41.75,0,0,0-2.83,4.78v7.78c-.18,12.91.7,25.46.7,38.2-6.89,1.41-15.56,2.65-20,3.18,0-2.83.35-5.66.53-8.31.18-9.55.89-19.28.89-29.18V206.91c0-4.78.17-9.55.17-14.5,4.07-.89,10.61-1.95,17.33-2.83-.17,8.49-.17,12.2-.17,15.74a71.32,71.32,0,0,1,6.72-6c4.77-4.06,10.43-8.84,17-8.84,8.85,0,10.79,8.84,10.79,17.69a69.39,69.39,0,0,1,7.25-8.32c4.6-4.59,11.85-10.61,18.57-9.54,2.83.35,6.9,2.65,8.31,5.48,2.13,4.95,1.24,12.2,1.24,17,0,6.18-.35,12.37-.71,18.74,0,2.83-.17,6-.17,9,0,14.68.17,25.82,3.71,37.32C547.89,281.36,541.52,282.78,533.74,284.55Z"/><path class="cls-1" d="M620.39,257.49c0,9-7.61,18.39-16.09,22.1-3.89,2-8.85,2.66-13.27,3-4.95.35-14.15-.18-18-1.94a28.91,28.91,0,0,1-12.55-11c-1.06-1.77-1.59-4.77-1.59-8.13A29,29,0,0,1,561,250.41c3.53,0,12.73.36,18,1.6-1.06,3.89-2,6.54,1.41,9.72,1.24,1.42,4.78,2.48,8.49,2.48,3.89,0,8.31-1.06,10.61-3.36,3-3-7.25-8.31-12.56-11.5a172.29,172.29,0,0,1-17.68-12A18.56,18.56,0,0,1,562,222.47a19.42,19.42,0,0,1,1.06-6.54c4.42-12,17.33-26.35,33.78-26.35,5.48,0,11.67,1.77,14.32,7.78,3.19,6.72,1.95,18.21,1.59,26.53a34.53,34.53,0,0,1-9.55,1.06c-3.53,0-6.72-.36-8.66-.36,0-5,.88-10.08-.18-15.21-3.36,0-11.49,5.49-12.38,10.08-.7,4.07,8.31,10.09,14.33,14,3.36,1.94,6.72,4.06,9.9,6.19C613.14,244.93,620.39,247.94,620.39,257.49Z"/></svg>