<svg id="Ebene_1" data-name="Ebene 1" xmlns="http://www.w3.org/2000/svg" viewBox="0 0 865 283"><defs><style>.cls-1{fill:#e74c3c;}.cls-2{fill:#fff;}</style></defs><rect class="cls-1" y="260" width="262" height="23" rx="5"/><path class="cls-1" d="M249.1,241.6,207.48,140l-8.16,6.82a3.39,3.39,0,0,0-1.06,1.58l-5.33,16.92a3.37,3.37,0,0,1-5.81,1.15l-11.37-13.61a3.41,3.41,0,0,0-1.58-1.06l-16.92-5.33a3.38,3.38,0,0,1-1.15-5.81l13.61-11.37a3.29,3.29,0,0,0,1.06-1.58l5.33-16.92a3.38,3.38,0,0,1,5.81-1.15l11.37,13.62a3.39,3.39,0,0,0,1.58,1.05l7.11,2.24-1.8-4.4a5,5,0,0,1-.17-3.32L233.28,6.71a5,5,0,0,0-7.75-5.46L93.38,97.86A4.89,4.89,0,0,0,92,99.45l-79.3,141.6A5,5,0,0,0,17,248.5H87.54l-.55-.56a5.11,5.11,0,0,0-2.46-1.35l-25.62-5.67a5,5,0,0,1-2.45-8.42L75.06,214a5.11,5.11,0,0,0,1.35-2.46l5.67-25.62a5,5,0,0,1,8.42-2.45L109,202.06a5.11,5.11,0,0,0,2.46,1.35l25.62,5.67a5,5,0,0,1,2.45,8.42L120.94,236a5.11,5.11,0,0,0-1.35,2.46l-2.22,10H244.48A5,5,0,0,0,249.1,241.6ZM176.45,49l7.91-1.58a1.56,1.56,0,0,0,.76-.4l5.81-5.6a1.53,1.53,0,0,1,2.57.81l1.58,7.9a1.59,1.59,0,0,0,.4.77l5.6,5.8a1.54,1.54,0,0,1-.8,2.58l-7.91,1.58a1.63,1.63,0,0,0-.77.4l-5.8,5.6a1.54,1.54,0,0,1-2.57-.81l-1.59-7.91a1.44,1.44,0,0,0-.4-.76l-5.59-5.81A1.53,1.53,0,0,1,176.45,49Z"/><path class="cls-2" d="M120.94,236l18.6-18.51a5,5,0,0,0-2.45-8.42l-25.62-5.67a5.11,5.11,0,0,1-2.46-1.35L90.5,183.46a5,5,0,0,0-8.42,2.45l-5.67,25.62A5.11,5.11,0,0,1,75.06,214L56.46,232.5a5,5,0,0,0,2.45,8.42l25.62,5.67A5.11,5.11,0,0,1,87,247.94l.55.56h29.83l2.22-10A5.11,5.11,0,0,1,120.94,236Z"/><path class="cls-2" d="M193.28,123.24l-11.37-13.62a3.38,3.38,0,0,0-5.81,1.15l-5.33,16.92a3.29,3.29,0,0,1-1.06,1.58L156.1,140.64a3.38,3.38,0,0,0,1.15,5.81l16.92,5.33a3.41,3.41,0,0,1,1.58,1.06l11.37,13.61a3.37,3.37,0,0,0,5.81-1.15l5.33-16.92a3.39,3.39,0,0,1,1.06-1.58l8.16-6.82L202,126.53l-7.11-2.24A3.39,3.39,0,0,1,193.28,123.24Z"/><path class="cls-2" d="M181.24,57.33a1.44,1.44,0,0,1,.4.76L183.23,66a1.54,1.54,0,0,0,2.57.81l5.8-5.6a1.63,1.63,0,0,1,.77-.4l7.91-1.58a1.54,1.54,0,0,0,.8-2.58l-5.6-5.8a1.59,1.59,0,0,1-.4-.77l-1.58-7.9a1.53,1.53,0,0,0-2.57-.81L185.12,47a1.56,1.56,0,0,1-.76.4L176.45,49a1.53,1.53,0,0,0-.8,2.57Z"/><path class="cls-1" d="M321.5,139.88c0,3.71-.17,8-.53,12.56-4.24.53-9.19,0-12.55-.18-2.12-.18-4.07-.18-6.19-.18-3.54,0-6.72.18-10.08.18-2.3,0-4.25,0-6.37-.18-2.3-.17-4.77,0-7.07-.35,0-3.54-.36-7.6-.36-11.14,0-4.25.71-8.49.89-12.56.35-7.43.71-14.68.71-22.1,0-11.85.17-23.7.17-35.55,0-9.9-.17-19.63-.53-29.53-.18-7.61.36-15.39.18-22.64-.36-5.84-1.06-11.32-.53-17.33,3.36-.53,7.43-.53,11-.71s7.78,0,11.5,0S309,0,312.66,0c2.65,0,5.48.18,8.14.36,0,1.41.17,3.18.17,5.3,0,3.54-.17,7.78-.53,12-4.24,0-8.66,0-13.08.17-3,0-6.19,0-9.2.18a41.77,41.77,0,0,0-.53,6.72c0,1.95.18,3.89.18,5.66.17,4.07.53,8,.35,12.2-.53,9.2-.53,18-.53,27.24,0,9-.71,18.21-.71,27.41,0,8.14.36,16.45.36,24.94,0,3.71-.18,8.31,0,12.2,2.47.18,5.12.18,7.6.18,4.95,0,9.9-.18,16.45-.18C321.33,135.81,321.5,137.76,321.5,139.88Z"/><path class="cls-1" d="M451.3,48.1c-.88,2.3-1.76,5.12-2.12,6-.35,1.59-1.06,3.18-1.59,5-1.06,3.71-1.41,5-2.47,8.49-2.66,8-3.9,14.68-6.2,24.23-1.59,7.25-3.35,15-4.59,22.28-.53,2.65-.89,5.48-1.24,8.14-.35,2.47-.35,5.12-.88,8.13l-21.76,1.77c-.17-.88-.35-2.12-.53-3-.35-1.77-.53-3.18-.71-4.59-.53-3.37-1.06-6.73-1.94-10.26-1.24-5.31-1.24-6.55-3-12-.35-1.06-.53-2.3-.88-3.36a46.33,46.33,0,0,0-3.36,8c-1.06,3.36-1.06,3-2.65,7.6-1.95,6-3.19,12.21-5,18.4-3.71.53-8,1.41-11.67,1.59-3.36.35-6.72.88-10.43,1.24-.36-5.49-.89-11.14-1.59-16.63-.36-2.83-.71-5.66-1.06-8.31-.89-7.78-1.6-14-3-23.17-.71-4.42-1.42-11.32-3-20.69-1.06-5.3-1.94-10.79-3.18-15.74a73.26,73.26,0,0,1,10.43-3.36c2.83-.71,6.37-1.24,9.38-1.94.7,3.18.7,5.66,1.23,8.13a100.57,100.57,0,0,1,1.42,10.79c.53,5.84,1.41,12,2.3,17.86.53,3,.88,5.84,1.24,8.67.17,2.12.35,4.6.7,7.42,1.42-5.83,3.72-12.91,5.13-19.09,1.77-6.55,2.65-17.51,4.42-23.88,4.25-.88,13.09-1.24,18.4-1.77.35,2.83.88,5.84,1.41,8.67.88,4.95,1.24,11.32,2.12,16.27.89,3.89,2.12,11.32,3.19,15.56.53-3.18,1.59-7.78,2.29-11.32.89-4.07,1.6-6.72,2.3-11,1.77-10.26,4.07-20.16,6.9-30.42l5.84,1.77c2.65.53,4.06,1.24,5.48,1.59A88.46,88.46,0,0,1,451.3,48.1Z"/><path class="cls-1" d="M482.42,44s-15.2,3-17,3.71c-1.95.53-6,1.77-6,1.77l-3.18-18A126.49,126.49,0,0,1,469,27.4c4.25-.88,11.32-1.94,11.68-1.94C480.66,25.46,482.6,41.73,482.42,44Zm-3.53,56.77c.17-11-.36-21.58-.36-32.54V61.71c0-1.59.18-3,.18-4.24-6.9.71-13.44,1.59-17.51,2.3V104c0,8.14-.7,16.45-1.06,24.58,0,2.3-.35,4.78-.35,7.08,4.24-.53,13.09-1.42,19.8-2.83C479.59,122.2,478.71,111.58,478.89,100.8Z"/><path class="cls-1" d="M544.67,111.05c.53,3.54,1.42,11.5,1.77,18.22-6.9,2.48-19.28,3.36-26.88,3.89-7.78.71-15.39,1.59-23.35,2.83a135.37,135.37,0,0,1-8.31-17.33,34.64,34.64,0,0,1,2.66-6c8.31-15.57,18.39-30.42,29-46.34A55.07,55.07,0,0,0,509,67.37c-3.54.71-5.13,1.06-8.84,2.12-1.42.54-3.9,1.42-5.49,2.13-1.94-6.9-3.89-13.8-4.59-17.51a41.07,41.07,0,0,1,9.37-3.18c13.09-3.36,26.7-5.13,40.5-6.55A99.1,99.1,0,0,1,546.44,64c-1.06.89-2.12,1.95-3.18,3a207.91,207.91,0,0,0-17.51,21.75c-5,7.08-12.73,18.39-15.39,26.17,5.84-.35,11.68-.53,17.86-1.23C532.29,113.35,540.6,111.58,544.67,111.05Z"/><path class="cls-1" d="M598.78,87s-29.71,5-40.67,7.25a146.21,146.21,0,0,1-4.25-18.74c6.37-1.59,27.42-5.13,43.51-6C597.37,69.49,599.14,81.17,598.78,87Z"/><path class="cls-1" d="M660.86,109.82c1.41,3.36,3.53,11.31,5.83,17.5-3.18,1.6-6.72,3.19-9.72,4.43a65.17,65.17,0,0,1-16.63,4.06,28.26,28.26,0,0,1-5.48.53,31.67,31.67,0,0,1-10.08-1.59c-4.42-1.41-7.25-4.07-9.73-8A67.8,67.8,0,0,1,608,111.41a33.52,33.52,0,0,1-1.42-10.26,81.29,81.29,0,0,1,.53-8.31,76.55,76.55,0,0,1,5.31-20.52,80,80,0,0,1,6.54-12,56.71,56.71,0,0,1,7.78-9.2,19.42,19.42,0,0,1,11.15-5.3c3-.36,5.66.53,8.49,1.06,9.72,2.65,18,15,18,25.46a231.65,231.65,0,0,1-2.12,28l-37,4.06c.53,2.3,1.24,5.31,1.59,6.19,1.77,3.54,4.42,6.9,8.31,7.61C638.22,118.48,643.7,118.31,660.86,109.82ZM627.25,85.76,646,84.17s1.24-5.66.89-9a8.45,8.45,0,0,0-7.26-7.25c-3.18-.7-7.42,4.42-9.19,7.78A42.59,42.59,0,0,0,627.25,85.76Z"/><path class="cls-1" d="M704,74.8a99.56,99.56,0,0,0-11,10.26c.18,3.53.18,7.25.18,11-.18,12.2.7,24.41.7,36.43-6.89,1.59-15.56,2.66-20,3.19,0-2.66.18-5.49.35-8,.36-9.2,1.07-18.57,1.07-27.94V63.66c0-4.78.17-9.37.17-14.15,4.07-.71,10.61-1.94,17.33-2.65v4.77c-.17,2.66-.17,5.49-.17,8.14,2.65-2.3,5.48-4.6,8.13-6.72,3.89-3,8.31-7.25,12.91-8.84A44.39,44.39,0,0,1,722,62.6C715.85,66.31,709.67,70,704,74.8Z"/><path class="cls-1" d="M767.67,136.7s-1.42-7.08-2.65-16.45c-5.49,3.71-11.15,6.9-17,10.26a25.1,25.1,0,0,1-11.32,3c-3.36,0-6.37-.7-8.67-3-5.3-5.13-5.48-13.44-5.48-20.16a221.26,221.26,0,0,1,1.77-24.41c.88-7.6,2.83-16.8,6.72-23.52,4.07-6.9,8.84-11.32,17-12.73a24.86,24.86,0,0,1,11.32.88,24.54,24.54,0,0,1,3.18,1.24c.53-8.49,1.24-16.8,2-25.29,0-1.94.35-7.78.7-10.26,3.72-.53,13.44-1.94,19.46-1.06-1.77,14.15-2.66,27.24-3.19,41.21-.17,9-1.06,18-.88,26.88.35,12,1.59,33.6,5.84,45.63C782.88,131.57,774,134.4,767.67,136.7Zm-12.38-30.95c2.83-1.77,5.3-3.36,7.25-4.78-.53-8.66-.35-17.68-.53-26.35V72.15c-3.36-2-7.07-4.25-9.55-3.54-3.71,1.06-5.48,4.24-6.72,7.25-2,5-2.65,11.5-3.71,16.45a49.2,49.2,0,0,0-.89,14.68c.18,4.42.89,5.66,5.31,3.89A55,55,0,0,0,755.29,105.75Z"/><path class="cls-1" d="M838.93,134.58c2.48,0,5,0,7.61-.18.17-3.89,0-8.49,0-12.2,0-8.49.35-16.8.35-24.94,0-9.2-.71-18.39-.71-27.41,0-13.09-.35-22.64-.35-30.6,0-3.18,0-6,.18-8.84,0-1.77.17-3.71.17-5.66a40.66,40.66,0,0,0-.53-6.72c-3.18-.18-6.19-.18-9.19-.18-4.6-.17-8.85-.17-13.09-.17a99.23,99.23,0,0,1-.71-12c0-2.12.18-3.89.18-5.3C825.67.17,828.5,0,831.15,0c3.72,0,7.25.18,11,.18,3.89,0,8-.18,11.49,0s7.61.18,11,.71c.35,6-.18,11.49-.36,17.33-.17,1.94-.17,3.89-.17,5.83,0,5.66.35,11.15.17,16.81-.35,8.31-.53,16.62-.53,25.11,0,13.26.36,26.7.36,40,0,7.42.17,14.67.53,22.1.17,4.07.7,8.31.7,12.56,0,3.54-.35,7.6-.17,11.14-2.3.35-4.78.18-7.08.35s-4.24.18-6.36.18c-3.36,0-6.72-.18-10.08-.18-2.13,0-4.07,0-6.19.18-3.54.18-8.32.71-12.74.18-.35-4.6-.53-8.85-.53-12.56,0-2.12.18-4.07.18-5.48C829,134.4,833.8,134.58,838.93,134.58Z"/><path class="cls-1" d="M309.62,184.27c.17,5.66,0,10.61-.18,15.74v6.36c0,5.13,0,9.91.18,15,6.19-1.42,14.85-3.19,22.81-4.42,0,0,2.3,11.49,2.48,18.21,0,0-14.15,2.12-25.12,4.42v2.65c0,11.68.89,23.17.71,34.84-6.54,2.3-13.26,3-20.16,3.36-.18-2.65.18-5.66.18-8.31.35-8.66,1.06-17.51,1.06-26.53V200.18c0-3.71,0-7.6-.18-11.49-2.83.71-5.48,1.59-8.31,2.12a143.53,143.53,0,0,1-3-17.68c12.56-5.13,30.78-7.78,36.43-8.67,7.61-1.24,15-3,22.46-4.24,1.42-.18,2.66-.36,4.07-.53.18,1.76.36,4.59.36,7.78a81.26,81.26,0,0,1-.71,11C331.55,180.38,320.58,181.44,309.62,184.27Z"/><path class="cls-1" d="M406,234.67a82.63,82.63,0,0,1-2.48,16.62A49.89,49.89,0,0,1,398,264.38a38.73,38.73,0,0,1-9.55,11.32,19.63,19.63,0,0,1-12.73,4.42,34.29,34.29,0,0,1-5.84-.71c-16.62-3-28.12-20.33-26.53-36.61,1.07-11.14,3-22.45,8.14-32.54,4.24-8.13,12.91-18,22.46-19.27,8-1.06,14.85,3.18,20,8.66a44.78,44.78,0,0,1,8.14,14.15C404.41,221.05,406.35,225.65,406,234.67Zm-19.1-1.06c0-2-.18-3.89-.18-6-.35-4.78-6.36-18.57-13.26-14.51-5.31,3.37-8,12-9.38,17.69a39.78,39.78,0,0,0-1.41,10.08,25.92,25.92,0,0,0,1.59,8.84c1.42,4.07,6.72,12.74,12,10.61s7.6-10.61,9-15.38A63.09,63.09,0,0,0,386.9,233.61Z"/><path class="cls-1" d="M442.43,220a100.53,100.53,0,0,0-11,10.26c.18,3.54.18,7.25.18,11-.18,12.21.71,24.41.71,36.43-6.9,1.6-15.57,2.66-20,3.19,0-2.66.18-5.48.36-8,.35-9.2,1.06-18.57,1.06-27.94V208.85c0-4.77.18-9.37.18-14.15,4.06-.7,10.61-1.94,17.33-2.65v4.77c-.18,2.66-.18,5.49-.18,8.14,2.65-2.3,5.48-4.6,8.13-6.72,3.89-3,8.32-7.25,12.91-8.84a44.54,44.54,0,0,1,8.32,18.39C454.28,211.5,448.09,215.22,442.43,220Z"/><path class="cls-1" d="M539.52,283.3c-4.43-17.5-3.54-36.6-3.54-65.25-.18-5.13-6.54,1.59-8.31,3.36-6.55,6.54-7.25,10.43-7.78,16.09-.36,14.5-.36,26.53,1.76,38.55-6.72,2.3-15.2,3.19-19.27,3.72a28.19,28.19,0,0,1-.53-3.54c-1.24-17.69-1.77-46.16-1.77-56.59-1.59-6.55-9.73,5.3-11.5,7.25a43.12,43.12,0,0,0-2.83,4.77v7.79c-.17,12.91.71,25.46.71,38.19-6.9,1.42-15.56,2.66-20,3.19,0-2.83.35-5.66.53-8.31.17-9.55.88-19.28.88-29.18V205.67c0-4.78.18-9.55.18-14.5,4.07-.89,10.61-1.95,17.33-2.83-.18,8.48-.18,12.2-.18,15.74a71.17,71.17,0,0,1,6.72-6c4.78-4.06,10.44-8.84,17-8.84,8.84,0,10.79,8.84,10.79,17.68a70,70,0,0,1,7.25-8.31c4.6-4.59,11.85-10.61,18.57-9.55,2.83.36,6.9,2.66,8.31,5.49,2.12,4.95,1.24,12.2,1.24,17,0,6.19-.35,12.38-.71,18.75,0,2.83-.18,6-.18,9,0,14.68.18,25.82,3.72,37.31C553.66,280.12,547.3,281.54,539.52,283.3Z"/><path class="cls-1" d="M626.17,256.25c0,9-7.61,18.39-16.1,22.1-3.89,1.95-8.84,2.65-13.26,3-4.95.35-14.15-.18-18-1.95a28.92,28.92,0,0,1-12.56-11c-1.06-1.77-1.59-4.78-1.59-8.14a29,29,0,0,1,2.13-11.14c3.53,0,12.73.36,18,1.59-1.06,3.89-1.94,6.55,1.42,9.73,1.24,1.42,4.77,2.48,8.49,2.48,3.89,0,8.31-1.06,10.61-3.36,3-3-7.25-8.32-12.56-11.5a170.79,170.79,0,0,1-17.68-12,18.53,18.53,0,0,1-7.25-14.85,19.42,19.42,0,0,1,1.06-6.54c4.42-12,17.33-26.35,33.78-26.35,5.48,0,11.67,1.76,14.32,7.78,3.18,6.72,1.95,18.21,1.59,26.52a34.16,34.16,0,0,1-9.55,1.07c-3.54,0-6.72-.36-8.66-.36,0-4.95.88-10.08-.18-15.21-3.36,0-11.5,5.49-12.38,10.08-.71,4.07,8.31,10.08,14.33,14,3.35,1.95,6.71,4.07,9.9,6.19C618.92,243.69,626.17,246.7,626.17,256.25Z"/></svg>